<mxfile host="app.diagrams.net" agent="Mozilla/5.0 (Macintosh; Intel Mac OS X 10_15_7) AppleWebKit/537.36 (KHTML, like Gecko) Chrome/132.0.0.0 Safari/537.36" version="26.0.7" pages="2">
  <diagram name="Page-1" id="WWgNFKnvl2FrMfekyCDH">
    <mxGraphModel dx="1011" dy="733" grid="1" gridSize="10" guides="1" tooltips="1" connect="1" arrows="1" fold="1" page="1" pageScale="1" pageWidth="850" pageHeight="1100" math="0" shadow="0">
      <root>
        <mxCell id="0" />
        <mxCell id="1" parent="0" />
        <mxCell id="eT-7bre4xrSaBfTOlpiK-3" value="" style="edgeStyle=orthogonalEdgeStyle;rounded=0;orthogonalLoop=1;jettySize=auto;html=1;" edge="1" parent="1" source="eT-7bre4xrSaBfTOlpiK-1" target="eT-7bre4xrSaBfTOlpiK-2">
          <mxGeometry relative="1" as="geometry" />
        </mxCell>
        <mxCell id="eT-7bre4xrSaBfTOlpiK-1" value="Start" style="ellipse;whiteSpace=wrap;html=1;" vertex="1" parent="1">
          <mxGeometry x="320" y="40" width="120" height="80" as="geometry" />
        </mxCell>
        <mxCell id="eT-7bre4xrSaBfTOlpiK-5" value="" style="edgeStyle=orthogonalEdgeStyle;rounded=0;orthogonalLoop=1;jettySize=auto;html=1;" edge="1" parent="1" source="eT-7bre4xrSaBfTOlpiK-2" target="eT-7bre4xrSaBfTOlpiK-4">
          <mxGeometry relative="1" as="geometry" />
        </mxCell>
        <mxCell id="eT-7bre4xrSaBfTOlpiK-2" value="User input" style="shape=parallelogram;perimeter=parallelogramPerimeter;whiteSpace=wrap;html=1;fixedSize=1;" vertex="1" parent="1">
          <mxGeometry x="320" y="210" width="120" height="60" as="geometry" />
        </mxCell>
        <mxCell id="eT-7bre4xrSaBfTOlpiK-7" value="" style="edgeStyle=orthogonalEdgeStyle;rounded=0;orthogonalLoop=1;jettySize=auto;html=1;" edge="1" parent="1" source="eT-7bre4xrSaBfTOlpiK-4" target="eT-7bre4xrSaBfTOlpiK-6">
          <mxGeometry relative="1" as="geometry" />
        </mxCell>
        <mxCell id="eT-7bre4xrSaBfTOlpiK-4" value="Each char in input" style="whiteSpace=wrap;html=1;" vertex="1" parent="1">
          <mxGeometry x="320" y="350" width="120" height="60" as="geometry" />
        </mxCell>
        <mxCell id="JKiBF13Uy348gDENLxPL-2" value="" style="edgeStyle=orthogonalEdgeStyle;rounded=0;orthogonalLoop=1;jettySize=auto;html=1;" edge="1" parent="1" source="eT-7bre4xrSaBfTOlpiK-6" target="JKiBF13Uy348gDENLxPL-1">
          <mxGeometry relative="1" as="geometry" />
        </mxCell>
        <mxCell id="JKiBF13Uy348gDENLxPL-4" value="" style="edgeStyle=orthogonalEdgeStyle;rounded=0;orthogonalLoop=1;jettySize=auto;html=1;" edge="1" parent="1" source="eT-7bre4xrSaBfTOlpiK-6" target="JKiBF13Uy348gDENLxPL-3">
          <mxGeometry relative="1" as="geometry" />
        </mxCell>
        <mxCell id="eT-7bre4xrSaBfTOlpiK-6" value="check lowercase" style="rhombus;whiteSpace=wrap;html=1;" vertex="1" parent="1">
          <mxGeometry x="340" y="480" width="80" height="80" as="geometry" />
        </mxCell>
        <mxCell id="JKiBF13Uy348gDENLxPL-6" value="" style="edgeStyle=orthogonalEdgeStyle;rounded=0;orthogonalLoop=1;jettySize=auto;html=1;" edge="1" parent="1" source="JKiBF13Uy348gDENLxPL-1" target="JKiBF13Uy348gDENLxPL-5">
          <mxGeometry relative="1" as="geometry" />
        </mxCell>
        <mxCell id="JKiBF13Uy348gDENLxPL-1" value="Yes" style="whiteSpace=wrap;html=1;" vertex="1" parent="1">
          <mxGeometry x="160" y="490" width="120" height="60" as="geometry" />
        </mxCell>
        <mxCell id="JKiBF13Uy348gDENLxPL-13" value="" style="edgeStyle=orthogonalEdgeStyle;rounded=0;orthogonalLoop=1;jettySize=auto;html=1;" edge="1" parent="1" source="JKiBF13Uy348gDENLxPL-3" target="JKiBF13Uy348gDENLxPL-12">
          <mxGeometry relative="1" as="geometry" />
        </mxCell>
        <mxCell id="JKiBF13Uy348gDENLxPL-3" value="No" style="whiteSpace=wrap;html=1;" vertex="1" parent="1">
          <mxGeometry x="560" y="490" width="120" height="60" as="geometry" />
        </mxCell>
        <mxCell id="JKiBF13Uy348gDENLxPL-8" value="" style="edgeStyle=orthogonalEdgeStyle;rounded=0;orthogonalLoop=1;jettySize=auto;html=1;" edge="1" parent="1" source="JKiBF13Uy348gDENLxPL-5" target="JKiBF13Uy348gDENLxPL-7">
          <mxGeometry relative="1" as="geometry" />
        </mxCell>
        <mxCell id="JKiBF13Uy348gDENLxPL-10" value="" style="edgeStyle=orthogonalEdgeStyle;rounded=0;orthogonalLoop=1;jettySize=auto;html=1;" edge="1" parent="1" source="JKiBF13Uy348gDENLxPL-5" target="JKiBF13Uy348gDENLxPL-9">
          <mxGeometry relative="1" as="geometry" />
        </mxCell>
        <mxCell id="JKiBF13Uy348gDENLxPL-18" style="edgeStyle=orthogonalEdgeStyle;rounded=0;orthogonalLoop=1;jettySize=auto;html=1;entryX=0.066;entryY=0.612;entryDx=0;entryDy=0;entryPerimeter=0;" edge="1" parent="1" source="JKiBF13Uy348gDENLxPL-5" target="JKiBF13Uy348gDENLxPL-20">
          <mxGeometry relative="1" as="geometry">
            <mxPoint x="340" y="980" as="targetPoint" />
            <Array as="points">
              <mxPoint x="220" y="720" />
              <mxPoint x="221" y="720" />
              <mxPoint x="221" y="730" />
              <mxPoint x="375" y="730" />
            </Array>
          </mxGeometry>
        </mxCell>
        <mxCell id="JKiBF13Uy348gDENLxPL-5" value="z?" style="rhombus;whiteSpace=wrap;html=1;" vertex="1" parent="1">
          <mxGeometry x="180" y="620" width="80" height="80" as="geometry" />
        </mxCell>
        <mxCell id="JKiBF13Uy348gDENLxPL-7" value="replace with a" style="whiteSpace=wrap;html=1;" vertex="1" parent="1">
          <mxGeometry y="630" width="120" height="60" as="geometry" />
        </mxCell>
        <mxCell id="JKiBF13Uy348gDENLxPL-9" value="inc + 1" style="whiteSpace=wrap;html=1;" vertex="1" parent="1">
          <mxGeometry x="320" y="630" width="120" height="60" as="geometry" />
        </mxCell>
        <mxCell id="JKiBF13Uy348gDENLxPL-15" value="" style="edgeStyle=orthogonalEdgeStyle;rounded=0;orthogonalLoop=1;jettySize=auto;html=1;" edge="1" parent="1" source="JKiBF13Uy348gDENLxPL-12" target="JKiBF13Uy348gDENLxPL-14">
          <mxGeometry relative="1" as="geometry" />
        </mxCell>
        <mxCell id="JKiBF13Uy348gDENLxPL-17" value="" style="edgeStyle=orthogonalEdgeStyle;rounded=0;orthogonalLoop=1;jettySize=auto;html=1;" edge="1" parent="1" source="JKiBF13Uy348gDENLxPL-12" target="JKiBF13Uy348gDENLxPL-16">
          <mxGeometry relative="1" as="geometry" />
        </mxCell>
        <mxCell id="JKiBF13Uy348gDENLxPL-19" style="edgeStyle=orthogonalEdgeStyle;rounded=0;orthogonalLoop=1;jettySize=auto;html=1;" edge="1" parent="1" source="JKiBF13Uy348gDENLxPL-12">
          <mxGeometry relative="1" as="geometry">
            <mxPoint x="550" y="940" as="targetPoint" />
          </mxGeometry>
        </mxCell>
        <mxCell id="JKiBF13Uy348gDENLxPL-12" value="check uppercase" style="rhombus;whiteSpace=wrap;html=1;" vertex="1" parent="1">
          <mxGeometry x="580" y="720" width="80" height="80" as="geometry" />
        </mxCell>
        <mxCell id="JKiBF13Uy348gDENLxPL-14" value="replace with A" style="whiteSpace=wrap;html=1;" vertex="1" parent="1">
          <mxGeometry x="400" y="730" width="120" height="60" as="geometry" />
        </mxCell>
        <mxCell id="JKiBF13Uy348gDENLxPL-16" value="inc +1" style="whiteSpace=wrap;html=1;" vertex="1" parent="1">
          <mxGeometry x="720" y="730" width="120" height="60" as="geometry" />
        </mxCell>
        <mxCell id="JKiBF13Uy348gDENLxPL-21" style="edgeStyle=orthogonalEdgeStyle;rounded=0;orthogonalLoop=1;jettySize=auto;html=1;" edge="1" parent="1" source="JKiBF13Uy348gDENLxPL-20">
          <mxGeometry relative="1" as="geometry">
            <mxPoint x="550" y="940" as="targetPoint" />
          </mxGeometry>
        </mxCell>
        <mxCell id="JKiBF13Uy348gDENLxPL-22" style="edgeStyle=orthogonalEdgeStyle;rounded=0;orthogonalLoop=1;jettySize=auto;html=1;exitX=0;exitY=0.5;exitDx=0;exitDy=0;" edge="1" parent="1" source="JKiBF13Uy348gDENLxPL-20" target="JKiBF13Uy348gDENLxPL-23">
          <mxGeometry relative="1" as="geometry">
            <mxPoint x="340" y="980" as="targetPoint" />
          </mxGeometry>
        </mxCell>
        <mxCell id="JKiBF13Uy348gDENLxPL-20" value="Output" style="shape=parallelogram;perimeter=parallelogramPerimeter;whiteSpace=wrap;html=1;fixedSize=1;" vertex="1" parent="1">
          <mxGeometry x="365" y="950" width="155" height="80" as="geometry" />
        </mxCell>
        <mxCell id="JKiBF13Uy348gDENLxPL-23" value="End" style="ellipse;whiteSpace=wrap;html=1;" vertex="1" parent="1">
          <mxGeometry x="640" y="1000" width="120" height="80" as="geometry" />
        </mxCell>
      </root>
    </mxGraphModel>
  </diagram>
  <diagram id="LZEvY7m_U0U6VNqGtUif" name="Page-2">
    <mxGraphModel dx="939" dy="681" grid="1" gridSize="10" guides="1" tooltips="1" connect="1" arrows="1" fold="1" page="1" pageScale="1" pageWidth="850" pageHeight="1100" math="0" shadow="0">
      <root>
        <mxCell id="0" />
        <mxCell id="1" parent="0" />
      </root>
    </mxGraphModel>
  </diagram>
</mxfile>
